<svg xmlns="http://www.w3.org/2000/svg" viewBox="0 0 340.42 306.9"><defs><style>.cls-1{fill:#010101;}.cls-2{fill:#8a8680;}.cls-3{fill:#282525;}.cls-4{fill:#997254;}.cls-5{fill:#020303;}.cls-6{fill:#282526;}.cls-7{fill:#020202;}.cls-8{fill:#987154;}.cls-9{fill:#040404;}.cls-10{fill:#070300;}.cls-11{fill:#030304;}.cls-12{fill:#030404;}.cls-13{fill:#898580;}.cls-14{fill:#3c3838;}.cls-15{fill:#88847f;}.cls-16{fill:#03010d;}.cls-17{fill:#050607;}.cls-18{fill:#3d3838;}.cls-19{fill:#272424;}.cls-20{fill:#040505;}.cls-21{fill:#040403;}.cls-22{fill:#3d3839;}.cls-23{fill:#191919;}.cls-24{fill:#a5a09a;}.cls-25{fill:#a39e98;}.cls-26{fill:#494797;}.cls-27{fill:#e52421;}.cls-28{fill:#020205;}.cls-29{fill:#f6b6b8;}.cls-30{fill:#fff;}.cls-31{fill:#68b42e;}.cls-32{fill:#282625;}.cls-33{fill:#02000c;}</style></defs><title>Recurso 13</title><g id="Capa_2" data-name="Capa 2"><g id="fondo"><path class="cls-1" d="M118,88.94H133a46.11,46.11,0,0,0,.16-6.86c0-2.34,0-4.67,0-7.3h43.43a1.56,1.56,0,0,1,1.52.44c2.47,2.86.37,6.82,2.31,9.87,2.44,1.51,5.16.76,7.76,1,5.88.43,11.87-1,17.67,1,2.56,1.65,2.72,4.28,2.87,7,.13,2.11-.42,4.34,1,6.4,3.35,1.76,7.37-.14,10.77,1.68a3.73,3.73,0,0,1,1.2,1c2.32,3.78.26,8.31,1.93,12.25,3.94,2.13,8.51-.15,12.31,2A3.72,3.72,0,0,1,237,118.5c1.71,3.73.76,7.69,1,11.55.27,4.78-.5,9.63.55,14.3,3.95,2.35,8.37.11,12.07,2.06a3.65,3.65,0,0,1,1.24,1c2.27,3.46.38,7.68,1.95,11.42,3.82,1.74,8,.24,11.88,1.38,2.93.3,5.87.45,8.81.47,1.89,0,3.75.17,5,1.9,1.3,0,.93,1,.93,1.69,0,4.06,0,8.11,0,12.32h13.92v14.16H266.44c-.44-1.92-.12-4.08-.18-6.2s0-4.08,0-6.12c0-.68.37-1.67-.93-1.69-1.61,1.86-3.79,2-6,2-7.51,0-15,0-22.51,0-5.86,1.55-11.84.76-17.76.87-6.42.12-12.85,0-19.27,0-1.71,0-3.45-.1-5.08.92-2.33,3.68.59,9-3.71,12.1a19.74,19.74,0,0,1-13.41.18c-4.48-3-1.9-8.15-3.92-12.54-9-1.81-18.6.4-27.86-1.48-9.16-.24-18.32-.15-27.47,0a18.69,18.69,0,0,1-5.09.83q-32.51.09-65,0a13.27,13.27,0,0,1-3.26-.38c-5.07-.8-10.21-.43-15.31-.68a21.87,21.87,0,0,1-9.54.81c-1.71-.29-3.27-.89-4-2.65V164l1.5-1.47h85.26V148.63H117V162.4h16V146.53H118c-2-1.37-2-3.46-2-5.5q-.11-23.27,0-46.53C116.06,92.4,116.32,90.43,118,88.94Z"/><path class="cls-2" d="M162.51,264.35a11.69,11.69,0,0,0-.12-13H147.17v13.08Q154.84,264.4,162.51,264.35Z"/><path class="cls-2" d="M251.65,277.5V263.29H237.51v-.69q-37.14-.11-74.25-.08c3.42,3.28,8.21.61,12.05,2.7a11.46,11.46,0,0,1,.07,8.5c-1.82,1.14-3.73.82-5.57.91-2.17.1-4.43-.14-6.07,1.77.17,2.78,2.33,2.39,4.07,2.47,2.62.11,5.3-.2,7.43,1.85,1.22,2,.65,4.19.91,6.31.24,1.91,0,4.14,2.71,4.65,3.7-3.11.72-8,3.14-11.78,2.73-.51,5.59-1,8.53.36a12,12,0,0,1-.09,8.59c-2.39,1.36-4.83.58-7.11,1-1.82.32-4.29,0-4.13,3.07,2,2.1,4.63,1.66,7.09,1.67,18.06.07,36.12,0,54.18,0,7.07,0,14.14.06,21.2-.05,2.45,0,5.24-.28,6-2.78,1.49-4.75,2.46-9.72-.91-14.27Z"/><path class="cls-1" d="M329.9,263.89l7,0A52,52,0,0,0,329.9,263.89Z"/><path class="cls-1" d="M329.9,262.89c-1.3.07-2.61.17-3.91.29-3.09,4.38-1.35,9.26-1.42,13.95-.72,4.14.5,8.48-1.39,13.24-12.78.43-25.63.48-38.17,0-2.13-4.74-.07-9.17-2.36-12.85a3.82,3.82,0,0,0-1.31-1.08c-5-1.11-9.92-2.14-14.56,1.06v14.91a10.06,10.06,0,0,1-1.21.19h-84a14.75,14.75,0,0,1-2.3-.17c-.15,0-.23-.5-.34-.77-1.26,0-.93-1-.93-1.65,0-3.85,0-7.71,0-11.57-4.8-1-9.59-.34-14-.35-3.56,3.52-.89,8.17-3.82,12.3-12.22.39-24.94.45-37.49-.07-2.5-4.26.28-9.27-3.84-12.89-4.35-.5-9.09-.94-13.68.38-2.42,3.88,0,8.68-3.3,11.91-1.63,1.12-3.51.89-5.34.93-2.32,0-4.63,0-6.36,2-1.3,0-.92-1-.93-1.69,0-4.38,0-8.76,0-13.24H75.22v28.81c9.21.69,261.67.45,265.2-.25v-42.9a33.42,33.42,0,0,0-3.57-.43Z"/><path class="cls-1" d="M280.41,88.94H266.72l-1.42-1.42V58.73c3.81-2.65,12.79-2.81,15.35-.29s2.42,11.36-.24,15.39c0,1.3,1,.92,1.69.93,2,0,4.08,0,6.12,0h6.22V88.72h16.07V74h14.15v29H296.08l-1.48,1.48v12.6H281.66c-.75-.89-.27-2.19-.28-3.37-.05-7.54,0-15.08-.06-22.62C281.32,90.34,282,89.11,280.41,88.94Z"/><path class="cls-1" d="M234.88,222.2H221.75v29H190.59V237.32H177.5c0,2.48,0,4.82,0,7.15a46.07,46.07,0,0,1-.17,6.86H162.39v13c24.14-.15,48.31-.58,72.49-1.08Z"/><path class="cls-1" d="M162.39,264.35v.2h72.49v-1.28C210.7,263.77,186.53,264.2,162.39,264.35Z"/><path class="cls-3" d="M58.54,222.06c-.17-1.57-1.41-.91-2.16-.91-7.38-.05-14.75,0-22.13,0H29.44v-14c1.9-.43,4.06-.11,6.18-.17s4.08,0,6.12,0c.69,0,1.68.37,1.69-.93-3.17-4.32-2.25-8.91-.9-13.54a2.1,2.1,0,0,1,1.51-.89,2.82,2.82,0,0,1,1.36,1.12c2,3.43,0,7.52,1.79,11,2,1.79,4.47,1.27,6.76,1.28,18.66.05,37.32,0,56,.05,2.62,0,5.4-.42,7.59,1.68,1.27,5.17,2,10.32-.45,15.38-1.9,2.17-4.48,1.91-7,2-6.07.15-12.16-.32-17.9.35-2.89,3.85.13,8.78-3.45,11.85h-1c-3.54-3.37-.82-8.18-2.59-11.82-1.64-1.65-3.59-1.28-5.41-1.3-5.45-.06-10.9,0-16.35,0C61.75,223.06,60,223.31,58.54,222.06Z"/><path class="cls-3" d="M177.5,236.22c-1.3,0-.93,1-.93,1.69,0,4.06,0,8.12,0,12.33h-14V221.12H147.28c-.23-.19-.46-.38-.7-.56a16.23,16.23,0,0,1,.21-13.71c1.84-1.87,4.24-1.74,6.6-1.84,2-.09,4.11.33,6.08-1,2.44-3.86-.77-9.15,2.89-12.84,4.64-1.8,9.26-2.08,13.85.16,2,1.65,2.27,3.92,2.3,6.32,0,2.13-.29,4.35.9,6.33,4,2.46,9.22-.65,12.9,2.91,2,4.61,1.8,9.26.28,13.94-1.62,2.12-4,2.1-6.33,2.23s-4.69-.44-6.88,1C177.22,227.85,179.81,232.44,177.5,236.22Z"/><path class="cls-4" d="M177.5,236.22c.06-.94-1.05-1.29-1-2.4.14-3.84.05-7.69.05-11.29l1.42-1.41h13.69a5.73,5.73,0,0,1,4.14-1.89c7.18-.13,14.35-.18,21.53,0a5.07,5.07,0,0,1,3,1.13c.2.24.39.48.58.73v29.15H191.79V236.22Z"/><path class="cls-1" d="M87.8,90.32l2.38-2.21h11.67v59.17c-2,.43-4.13.13-6.25.18s-4.36,0-6.4,0c-.73-.83-1.5-1.28-1.44-2.46.14-2.66,0-5.33,0-8Z"/><path class="cls-1" d="M265.3,14.35H206.77V.68c4-.71,43.53-.94,58.53-.33Z"/><path class="cls-5" d="M295.63,250.23V192h13.84v58.26Z"/><path class="cls-6" d="M117.07,222.06V207a1.58,1.58,0,0,1,1.53.47c2.6,3.16.25,7.41,2.45,11,3.91,1.47,8.15.56,12.28.75,3.11.14,6.23,0,9.35.07a6.11,6.11,0,0,1,4.6,1.91v29.27h-15.1c-3.41-3.09-.86-7.64-2.74-11.23-3.41-2.35-8.29.62-11.42-2.94,0-4.17,0-8.34,0-12.51C118,223,118.34,222.07,117.07,222.06Z"/><path class="cls-7" d="M324.63,251.65l-1.16-1.16H310.62v11.18l14-.23Z"/><path class="cls-7" d="M312.16,263.84c.22.72,1,.48,1.59.49,4.17,0,8.34,0,12.51,0h14.16a1.35,1.35,0,0,0-.06-.43Z"/><path class="cls-7" d="M162.47,28.36V14.51h43.2a47.69,47.69,0,0,1,.14,6.7c.05,2.33,0,4.67,0,7.15Z"/><path class="cls-1" d="M88.75,236.22V222.06h28.32v27.87l-1.34,1.28H104.21l-1.28-1.28V236.22Z"/><path class="cls-8" d="M58.54,222.06c1,.05,1.32-1,2.42-1,8.86.1,17.73.06,26.84.06v15.1H62.85c-1.52,0-3,.14-4.31-.95A11.66,11.66,0,0,1,58.54,222.06Z"/><path class="cls-1" d="M14.16,191.85V207H.49a2.06,2.06,0,0,1-.33-.33.76.76,0,0,1-.15-.4c0-9.72,0-19.45,0-29.49H15.11C16.49,181.89,17.34,187,14.16,191.85Z"/><path class="cls-1" d="M60,251.33,58.63,250v-12.7h30V249.1L86,251.33Z"/><path class="cls-9" d="M132.18,43.62V30a2.51,2.51,0,0,1,.32-.33.79.79,0,0,1,.41-.15h28.54V43.62Z"/><path class="cls-10" d="M116.91,87.91H103.07v-29c2.07-.39,4.39-.1,6.67-.15s4.67,0,7.17,0Z"/><path class="cls-11" d="M309.52,147.39H295.67v-29c2.08-.38,4.4-.09,6.68-.14s4.67,0,7.17,0Z"/><path class="cls-1" d="M58.54,222.06v13.22a5.53,5.53,0,0,1-3.85,1c-8.32,0-16.64,0-25.19,0V222.06Z"/><path class="cls-12" d="M295.63,43.53c4.54.7,9.42-1.1,14,1.34V72.7h-14Z"/><path class="cls-1" d="M89.43,276.47H103.3V262.81q-6.93,0-13.87.11Z"/><path class="cls-1" d="M118.1,264.38h13.27q-6.63,0-13.27-.11Z"/><path class="cls-1" d="M146.33,257.68c-.06-2.12.26-4.28-.18-6.18H118.1v12.77q6.63.08,13.27.11h15C146.34,262,146.39,259.86,146.33,257.68Z"/><path class="cls-7" d="M148.39,222.14h12.9V250.2c-1.92.43-4.08.12-6.21.17s-4.36,0-6.69,0Z"/><path class="cls-13" d="M104.39,277.5l.75.44c5-.24,9.94.67,14.85-.51,2.63-4.74,1.22-9.81,1.21-14.77l-16.81.14Z"/><path class="cls-14" d="M14.16,191.85c0-3.91.1-7.83-.05-11.74a6.82,6.82,0,0,1,1-3.37h.94a21.78,21.78,0,0,0,13.22,0c3.19,4.69,2.21,9.66,1,14.65a3.86,3.86,0,0,1-1.22,1.35c-4.75,1.32-9.48,2.35-13.94-.89Z"/><path class="cls-15" d="M103.44,292.61H90.22V277.5h14.17C104.64,282.57,106.18,287.72,103.44,292.61Z"/><path class="cls-1" d="M14.3,207.09H28.22v13.83H14.3Z"/><path class="cls-16" d="M43.43,191.85V206H29.27a13.06,13.06,0,0,1,0-14.16A13.06,13.06,0,0,1,43.43,191.85Z"/><path class="cls-17" d="M132,43.76V57.68H118.22V43.76Z"/><path class="cls-9" d="M280.25,28.43H266.4V14.35h13.85Z"/><circle class="cls-18" cx="125.1" cy="243.31" r="10.01"/><path class="cls-19" d="M29.27,191.85V206H15.11V191.85Z"/><path class="cls-20" d="M295.38,43.49H281.46V29.68h12.85l1.07,1.07Z"/><path class="cls-7" d="M281.43,162.43V148.57h13.14v13.86Z"/><path class="cls-21" d="M265.82,276.55h-13c-.47-2.07-.16-4.23-.21-6.35s0-4.36,0-6.7h13.06c.38,2.07.09,4.38.14,6.66S265.83,274.45,265.82,276.55Z"/><path class="cls-22" d="M44.37,177.69h68.85c1.66,0,3.38.32,4.8-.94,3.13,5.11,2.76,10.27.26,15.48-1.65,1.48-3.69,1.58-5.75,1.59q-31.05.1-62.12,0c-2.23,0-4.42-.1-6-2A13.1,13.1,0,0,1,44.37,177.69Z"/><path class="cls-18" d="M236,176.74v15.11c-2.66,3.05-6.26,1.64-9.49,2a28,28,0,0,1-5.49-.25,88.39,88.39,0,0,1-14.37,0,90.42,90.42,0,0,1-11,.22c-1.88,0-3.71-.2-4.93-1.93a6.79,6.79,0,0,0,1-3.36c-.17-3.43-.06-6.87-.06-10.36,1.07-.88,2.36-.41,3.53-.42q18.27-.06,36.55,0C233.26,177.7,234.77,177.8,236,176.74Z"/><path class="cls-18" d="M147.28,191.85c0-3.91-.1-7.83.06-11.74a6.82,6.82,0,0,0-1-3.37c1.46-.44,2.33,1.23,3.82,1a28,28,0,0,1,4.2,0h22.19c0,3.72.11,7.27-.05,10.81a6.62,6.62,0,0,0,1,3.35H162.39A14.73,14.73,0,0,1,147.28,191.85Z"/><path class="cls-23" d="M103.44,292.61a6.86,6.86,0,0,0,1-3.37c-.16-3.91,0-7.83,0-11.74h15.1c1.77-2,4.17-1.95,6.54-2,9.28,0,18.56,0,27.85,0,2,0,4.11.32,6-1,2.35-3.29-.39-7.9,2.63-11.1a1.3,1.3,0,0,1,1.66,0c2.48,4.45,2.58,8.84-.33,13.15,0,1.3,1,.93,1.68.94,3.75,0,7.51,0,11.27,0,.64,0,1.28,0,1.21.94H164.09c-.47,2.07-.15,4.24-.21,6.36s0,4.36,0,6.39l-1.28,1.28H119.66c-.4-2.1-.11-4.41-.16-6.69s0-4.67,0-7.17h-14c-.39,2.07-.1,4.38-.15,6.66s0,4.67,0,6.83C104.7,292.9,104,292.48,103.44,292.61Z"/><path class="cls-24" d="M126,265.36c10.49,0,21,0,31.47,0a11.16,11.16,0,0,0,5.46-1h1c.08,0,.16-.11.24-.32a.49.49,0,0,0-.12-.5q-22.12,0-44.21.15C121.5,265.39,123.75,265.35,126,265.36Z"/><path class="cls-24" d="M163.87,263.34v13.21H178c0-2.64,0-5,0-7.31a47.14,47.14,0,0,0-.16-6.73h-14Z"/><path class="cls-24" d="M163.87,263.39v.13h14s0-.08,0-.12Z"/><path class="cls-25" d="M179.11,291.53V277.6h13.82v13.93Z"/><path class="cls-26" d="M280.47,263.39H266.78v.3l14,.05Z"/><path class="cls-27" d="M133.12,58.73h43.43c0,4,.11,7.88-.05,11.74a6.79,6.79,0,0,0,1,3.36l.36.48-.36.47h-.95c-.32-1.83-1.75-.9-2.61-.9-13-.07-26,0-38.95,0h-2.81c-2.78-4-2.78-10.9,0-15.1Z"/><path class="cls-27" d="M118,73.83h14.16v14a43.4,43.4,0,0,1-6.85.17c-2.33,0-4.67,0-7.31,0Z"/><circle class="cls-27" cx="258.22" cy="154.56" r="10.01"/><path class="cls-27" d="M118,88.94v57.59a6.89,6.89,0,0,1-3.38,1c-3.76-.16-7.53-.05-11.51-.05V88.94Z"/><path class="cls-27" d="M251.14,222.06c-3.07-3.34-8.76-4-14.56-1.64-.18.24-.36.47-.55.7v42.13l15.11-.33Z"/><path class="cls-27" d="M280.81,262.74l-14-.05V277.5h15.1V263.81C281.47,263.39,281.17,263.1,280.81,262.74Z"/><path class="cls-27" d="M236,221.12h-15.1c-3.14-4.76-2.64-9.62-.41-14.53a18.28,18.28,0,0,1,15.82-.1C238.73,211.41,239.17,216.3,236,221.12Z"/><path class="cls-27" d="M118.18,147.55H132v13.94a47.41,47.41,0,0,1-6.68.14c-2.34.05-4.67,0-7.16,0Z"/><path class="cls-27" d="M133.29,118.28h58.2v13.64c-3.89.68-42.69.9-58.2.3Z"/><path class="cls-27" d="M236,118.21h15.11v29.27H236Z"/><path class="cls-27" d="M205.82,88H177.5V74.78c9.45-1,18.9-.2,28.73-.51C207.41,79.18,208.3,83.59,205.82,88Z"/><path class="cls-27" d="M205.82,88V74.78H177.5v-1h29.27c1.92,1.37,1.82,3.44,1.92,5.45s-.25,4,.81,5.78c3.57,2.34,8.36-.72,11.43,2.94v15.1H206.77c0-4.06-.11-7.92,0-11.76A6.71,6.71,0,0,0,205.82,88Z"/><path class="cls-27" d="M220.93,103.1H236v15.11H222.51a3,3,0,0,1-1.62-3C221,111.19,220.93,107.14,220.93,103.1Z"/><path class="cls-27" d="M281.88,277.5h44.38c0,4.08,0,8.15,0,12.23a2.55,2.55,0,0,1-1.89,2.82H283.26a3.18,3.18,0,0,1-1.42-2.82C282,285.66,281.88,281.58,281.88,277.5Z"/><path class="cls-28" d="M265.3,207H250.2A13.08,13.08,0,0,1,236,207h-15.1c-4.2,2.78-11.1,2.78-15.11,0,0-.66.29-1,1-1,1.5-1.68,3.5-1.89,5.59-1.94,1.86,0,3.79.28,5.68-.86,2.3-3.35-.67-8.23,2.89-11.36H265.3Z"/><path class="cls-29" d="M267.1,262.69c3.42,3.2,8.41.23,12,2.73,1,1.81.8,3.71.84,5.57.05,2.36-.05,4.74,1.94,6.51,1.61,1.86,3.79,2,6,2q16.17.06,32.35,0c2.22,0,4.4-.11,6-2V263.34c-.23-.17-.47-.32-.7-.47Z"/><path class="cls-29" d="M309.68,256v-4.69c-4.39,0-8.44,0-12.49,0-.68,0-1.67.36-1.68-.93-1.84-.34-.89-1.77-.89-2.64-.07-17.45,0-34.9-.08-52.35,0-1.18.47-2.47-.42-3.55H265.3l-.72.56c-1.77,4.93-2.3,9.81.48,14.6,2.95-.12,2.76-2.47,3.05-4.39.35-2.28-.37-4.72,1.11-7a9.87,9.87,0,0,1,9,.52c.22,12.34.63,24.88-.26,37.32-3.81,1-6.83,1.32-9.78,0-1.49-2.61-.77-5.34-1-8s-1-5.24-3.92-5.72c-4.28-.69-8.71-1.59-12.71,1.17a5.29,5.29,0,0,0-.84,1.48c-1.26,13.15-.49,26.33-.39,39.5a7.73,7.73,0,0,0,.11,1.11c20.08-.44,40.16-.9,60.21-1.27C309.68,259.8,309.68,257.91,309.68,256Z"/><path class="cls-29" d="M279.46,162.58c-3.6,0-7.2-.11-10.79.06a6.82,6.82,0,0,1-3.37-1c-3.4-3.09-.86-7.64-2.74-11.23-3.41-2.34-8.29.62-11.42-2.93-1.85-1.63-1.94-3.81-2-6,0-5,0-10,0-15,0-1.71.13-3.46-.86-5.14-3.63-2.63-8.87.7-12.27-3.06-2-1.77-1.9-4.17-1.95-6.53,0-1.86.21-3.78-.77-5.61-3.75-2.5-8.93.76-12.38-3-3.1-4.84-2.62-9.8-.55-14.83,3.31-.82,2.93,1.91,3.3,3.64.51,2.4-.37,5,1.18,7.46a10.15,10.15,0,0,0,7.89.13c1.62-1.7,1.28-3.67,1.3-5.51.07-4.85-.06-9.71.07-14.57.15-5.64,1.77-7.24,7.29-7.52,2.16-.12,4.41.31,6.46-.87,1.73-1.8,1.22-4.11,1.31-6.24.28-6.4,1.79-7.93,8.28-8,2.48,0,5-.38,7.38.89a3.77,3.77,0,0,1,1.27,1.11c1.59,2.58,1.06,5.47,1.14,8.26.17,6.23-.32,12.49.33,18.29,4.17,3.28,9.48-.32,12.83,3.58v29.24h14v29.25h-14c0,4-.11,7.9,0,11.77A6.83,6.83,0,0,1,279.46,162.58Z"/><path class="cls-29" d="M161.45,43.62c1.29,0,.92-1,.93-1.68,0-4,0-8.1,0-12.41h44.38V14.35c1.61-1.86,3.79-2,6-2q23.24-.06,46.49,0c2.23,0,4.41.11,6,2V29.46c-.16.22-.33.43-.49.66-2.51,1.88-5.43,1.17-8.21,1.28-5.9.21-11.85-.35-17.23.34-1.75,2.52-1.29,4.63-1.4,6.64-.28,5.25-2.05,7.32-7.4,7.91-4.85.54-9.74.14-14.61.24-2,0-4.1-.31-6.29.95-2.13,3.38.31,8.45-3.46,11.58-3.47,2.87-8.1.44-11.75,2.64a11.35,11.35,0,0,0-.24,8c2.71,1.79,5.5.83,8.07,1.3,1.88.34,4.66-.18,4.2,3.28-2.13,1.43-4.57,1-6.85.88-7.3-.37-14.67,1.09-21.89-.85-2.38-1.49-3.16-3.71-3.17-6.42,0-2,.29-4.11-.88-6-1.69-1.58-3.82-1.2-5.81-1.21-9.44-.07-18.87,0-28.3-.06-2.31,0-4.8.33-6.47-1.94V45c1.08-.88,2.37-.41,3.55-.42,7.54-.05,15.08,0,22.62-.06C160,44.53,161.28,45.2,161.45,43.62Z"/><path class="cls-29" d="M280.41,73.83V58.73H265.3c-3.18-4.1-2.69-8.84-1-13,2.21-5.38,8.41-1.71,12.37-4.19a10.74,10.74,0,0,0,.18-8c-2-1.72-4.33-1-6.45-1.29s-4.62.28-5.11-2.84h15c.15,2.41,0,4.87.06,7.32s0,5,0,7.63h13.53a3.89,3.89,0,0,1,.48.49.78.78,0,0,1,.14.41c0,9.4,0,18.81,0,28.52Z"/><path class="cls-29" d="M132.18,58.73v15.1a13.06,13.06,0,0,1-14.16,0V58.73Z"/><path class="cls-29" d="M309.52,87.92H295.67V74a49.15,49.15,0,0,1,6.69-.14c2.34,0,4.67,0,7.16,0Z"/><path class="cls-29" d="M236,207H250.2c0,3.6.1,7.2-.06,10.79a6.82,6.82,0,0,0,1,3.37v.94a6.93,6.93,0,0,0-3.37-1c-3.91.16-7.82.06-11.74.06Z"/><path class="cls-30" d="M265.3,207c1.3,0,.93-1,.93-1.69,0-4.06,0-8.12,0-12.33h13.93v43.12H265.42a65,65,0,0,1-.11-7.16c0-2.49,0-5,0-7.78H251.14c-3.56-3.24-4.07-9.29-1.24-14.64C255.1,204.38,260.26,203.76,265.3,207Z"/><path class="cls-30" d="M220.93,88H206.77V73.83c0-1.3-1-.92-1.69-.93-4.38,0-8.75,0-13.27,0V59H205.3c2.71-4.54.79-9.45,1.71-14.38H221.8a48.86,48.86,0,0,1,7.06.07c2.42.36,4.31-1.77,7-.83a45.38,45.38,0,0,0,.19-7.05c0-2.33,0-4.67,0-7.3H265.3c0,1.3,1,.92,1.69.93,4.05,0,8.11,0,12.32,0V44.56h-14V58.73h-14c-.42,2.23-.13,4.54-.18,6.82s0,4.67,0,6.83a3.29,3.29,0,0,1-2.9,1.5c-3.91-.12-7.83,0-12.05,0V102H222.06c-.43-1.92-.12-4.08-.18-6.2s0-4.08,0-6.12C221.84,89,222.22,88,220.93,88Z"/><path class="cls-1" d="M205.82,207h15.11v14.16H191.66V207Z"/><path class="cls-31" d="M236,176.74H265.3v15.11a5.79,5.79,0,0,1-4.13,1.9c-7.18.15-14.36.16-21.54,0a6.16,6.16,0,0,1-3.89-1.4A16,16,0,0,1,236,176.74Z"/><path class="cls-31" d="M190.71,191.85h16.06c3.29,4.48,2.12,9.28,1,14.08a4.68,4.68,0,0,1-1.91,2c-4.83,1.11-9.68,2.31-14.2-1-4,0-8.09-.05-12.13,0a3.22,3.22,0,0,1-3-1.55V191.85c.32-.43.63-.43.95,0Z"/><path class="cls-31" d="M118,191.85V176.74h28.32c4.84,4.43,2.76,9.82,2.08,15a3.65,3.65,0,0,1-1.06,1.43c-9.61.66-19.24,1.76-28.8-.63Z"/><path class="cls-31" d="M44.37,177.69v14.16H29.27V176.74c3.91,0,7.83.11,11.74-.05A6.79,6.79,0,0,1,44.37,177.69Z"/><path class="cls-31" d="M44.37,191.85H118c3.06,4.71,2.5,9.6.71,14.55L118,207H44.37Z"/><path class="cls-31" d="M147.28,221.12H118V207a5.75,5.75,0,0,1,4.13-1.9c7.18-.12,14.36-.17,21.54,0a5.08,5.08,0,0,1,3,1.12l.57.74Z"/><path class="cls-31" d="M147.28,191.85h15.11c0,4,0,8.09,0,12.13a3.21,3.21,0,0,1-1.54,3h-13.6a13.12,13.12,0,0,1,0-14.17Z"/><path class="cls-5" d="M119.49,277.5h43.43V263.34a1.7,1.7,0,0,0-.33-.82q-21.57,0-43.1.16Z"/><path class="cls-5" d="M160.31,263.44c-13.61-.07-27.21-.05-40.82-.05v.29q21.53-.14,43.1-.16C162,262.86,161,263.44,160.31,263.44Z"/><path class="cls-25" d="M105.41,276.39h13.14c0-2.49,0-4.83,0-7.16a48.74,48.74,0,0,0-.13-6.55l-13,.11Z"/><path class="cls-25" d="M105.41,263.56v.23l13-.11s0-.08,0-.12Z"/><path class="cls-32" d="M220.93,191.85V206H206.77V191.85Z"/><path class="cls-33" d="M147.28,192.79V207H118V191.85q12.47,0,25,0C144.49,191.84,146,191.7,147.28,192.79Z"/><rect class="cls-29" x="267.1" y="257.94" width="42.58" height="5.45"/></g></g></svg>