<svg xmlns="http://www.w3.org/2000/svg" viewBox="0 0 270.76 60.3"><defs><style>.cls-1{fill:#1d1d1b;}.cls-2{fill:#f9d716;stroke:#e6007e;stroke-miterlimit:10;}</style></defs><title>Recurso 5</title><g id="Capa_2" data-name="Capa 2"><g id="fondo"><path class="cls-1" d="M4,60.3V5.1h27.6v9.2H13.17v9.21h18.4v9.2H13.17V51.1h18.4v9.2Zm27.6-36.79V14.3h9.19v9.21Zm0,27.59V32.71h9.19V51.1Z"/><path class="cls-1" d="M50,51.1V23.51h9.2V51.1Zm9.2-27.59V14.3h18.4v9.21Zm0,36.79V51.1h18.4v9.2Zm18.4-9.2V23.51h9.19V51.1Z"/><path class="cls-1" d="M96,51.1V14.3h9.2V51.1Zm9.2,9.2V51.1h18.4v9.2Zm18.4-9.2V14.3h9.19V51.1Z"/><path class="cls-1" d="M142,60.3v-46h9.2v9.21h9.2v9.2h-9.2V60.3Zm27.6,0V41.91h-9.2v-9.2h9.2V14.3h9.19v46Z"/><path class="cls-1" d="M188,60.3v-46h9.2V32.71h27.59v9.2H197.17V51.1h27.59v9.2Z"/><path class="cls-1" d="M234,60.3V51.1h27.6V41.91H234V14.3h9.2V32.71h18.4V14.3h9.19v46Z"/><path class="cls-2" d="M.5,55.7V.5H28.09V9.7H9.7v9.21H28.09V28.1H9.7V46.5H28.09v9.2ZM28.09,18.91V9.7h9.2v9.21Zm0,27.59V28.1h9.2V46.5Z"/><path class="cls-2" d="M46.5,46.5V18.91h9.2V46.5Zm9.2-27.59V9.7H74.09v9.21Zm0,36.79V46.5H74.09v9.2Zm18.39-9.2V18.91h9.2V46.5Z"/><path class="cls-2" d="M92.5,46.5V9.7h9.2V46.5Zm9.2,9.2V46.5h18.39v9.2Zm18.39-9.2V9.7h9.2V46.5Z"/><path class="cls-2" d="M138.5,55.7V9.7h9.2v9.21h9.2V28.1h-9.2V55.7Zm27.59,0V37.3H156.9V28.1h9.19V9.7h9.2v46Z"/><path class="cls-2" d="M184.5,55.7V9.7h9.2V28.1h27.59v9.2H193.7v9.2h27.59v9.2Z"/><path class="cls-2" d="M230.5,55.7V46.5h27.59V37.3H230.5V9.7h9.2V28.1h18.39V9.7h9.2v46Z"/></g></g></svg>