<svg xmlns="http://www.w3.org/2000/svg" viewBox="0 0 72.81 83.21"><defs><style>.cls-1{fill:#1d1d1b;}.cls-2{fill:#fbd709;}.cls-3{fill:#fcfcfc;}.cls-4{fill:#fbd708;}</style></defs><title>Recurso 7</title><g id="Capa_2" data-name="Capa 2"><g id="coins"><path class="cls-1" d="M0,41.58Q0,31.34,0,21.09c0-.24.06-.29.29-.29H5c.2,0,.24,0,.24-.24,0-3.3,0-6.59,0-9.88,0-.25.07-.29.3-.29h4.57c.34,0,.34,0,.34-.35,0-1.53,0-3.05,0-4.58,0-.21,0-.28.28-.28h9.85c.22,0,.29,0,.28-.28,0-1.57,0-3.13,0-4.7,0-.18,0-.23.23-.23H51.79C52,0,52,.05,52,.23,52,1.81,52,3.38,52,5c0,.21.06.25.26.25h9.88c.24,0,.27.07.27.28q0,4.92,0,9.83c0,.22,0,.3.29.3h4.63c.22,0,.3,0,.3.29,0,3.28,0,6.57,0,9.85,0,.21.05.27.27.27h4.7c.2,0,.24,0,.24.24V57c0,.2,0,.24-.24.24H67.84c-.2,0-.24.06-.23.25q0,4.94,0,9.88c0,.24-.08.28-.3.28h-4.6c-.24,0-.32,0-.32.3,0,3.28,0,6.55,0,9.83,0,.22,0,.29-.27.29l-9.86,0c-.22,0-.28,0-.28.28,0,1.57,0,3.14,0,4.71,0,.18,0,.22-.22.22H21c-.19,0-.23,0-.23-.22,0-1.58,0-3.16,0-4.74,0-.21-.06-.25-.25-.25l-9.88,0c-.24,0-.28-.07-.28-.29,0-1.54,0-3.09,0-4.63,0-.22,0-.3-.28-.3-1.56,0-3.11,0-4.66,0-.21,0-.27,0-.27-.26,0-3.29,0-6.59,0-9.88,0-.21,0-.27-.26-.27H.27c-.22,0-.27,0-.27-.26Q0,51.86,0,41.58Z"/><path class="cls-2" d="M41.61,10.4H51.75c.22,0,.27.06.26.27,0,1.55,0,3.1,0,4.65,0,.22,0,.29.28.29H57c.21,0,.25.05.25.26v9.8c0,.35,0,.35.36.35h4.6c.19,0,.24.05.24.24V57c0,.2-.06.23-.24.23H57.49c-.22,0-.29,0-.29.28,0,3.29,0,6.57,0,9.86,0,.23-.07.28-.29.27H52.28c-.21,0-.28,0-.28.27,0,1.56,0,3.12,0,4.68,0,.22,0,.26-.27.26H41.92c-.24,0-.32,0-.32.3,0,1.56,0,3.11,0,4.66,0,.2,0,.25-.25.25H26.25C26,78,26,78,26,77.75c0-1.56,0-3.13,0-4.7,0-.19,0-.25-.24-.25-1.65,0-3.31,0-5,0a.57.57,0,0,1-.09-.42V68.12c0-.43,0-.43-.43-.43H16a.64.64,0,0,1-.43-.08h0a.65.65,0,0,1-.09-.47V57.83c0-.58,0-.54-.53-.54H10.83a.64.64,0,0,1-.43-.08h0a.44.44,0,0,1-.09-.27V26.56a.84.84,0,0,1,.09-.56h0a.6.6,0,0,1,.43-.09h4.29c.4,0,.4,0,.4-.4V16.08a.68.68,0,0,1,.09-.48h0a.49.49,0,0,1,.35-.09h9.71a.46.46,0,0,1,.34.08.4.4,0,0,1,.09.29v46.2c0,.11,0,.21,0,.31,0,1.55,0,3.09,0,4.63,0,.49,0,.49.51.49H46.22c.5,0,.5,0,.5-.5V16.18c0-.49,0-.49-.48-.49-1.54,0-3.09,0-4.63,0a4,4,0,0,1-.49,0H26.51a.73.73,0,0,1-.5-.08.46.46,0,0,1-.09-.34V10.75A.49.49,0,0,1,26,10.4h0a.69.69,0,0,1,.48-.09H41.16A.65.65,0,0,1,41.61,10.4Z"/><path class="cls-3" d="M10.41,26V57.21H5.47c-.22,0-.27-.05-.27-.26q0-15.35,0-30.68c0-.22,0-.27.27-.27C7.11,26,8.76,26,10.41,26Z"/><path class="cls-3" d="M41.61,10.4H26c0-1.65,0-3.3,0-4.94,0-.22.05-.27.27-.27H41.34c.24,0,.27.07.27.28C41.6,7.12,41.61,8.76,41.61,10.4Z"/><path class="cls-3" d="M26,10.4v5.21H15.6c0-1.65,0-3.3,0-4.94,0-.22.05-.27.27-.27Z"/><path class="cls-3" d="M15.61,15.6c0,3.37,0,6.74,0,10.11,0,.24-.06.3-.29.3-1.64,0-3.28,0-4.92,0,0-3.38,0-6.75,0-10.12,0-.23.06-.29.29-.29Z"/><path class="cls-3" d="M10.4,57.21h4.94c.22,0,.27.06.27.27,0,3.38,0,6.76,0,10.14-1.65,0-3.3,0-4.94,0-.22,0-.27,0-.27-.26C10.41,64,10.4,60.59,10.4,57.21Z"/><path class="cls-3" d="M15.6,67.61h4.88c.25,0,.34,0,.33.32,0,1.63,0,3.25,0,4.88h-5c-.21,0-.15-.13-.15-.24V67.74S15.6,67.65,15.6,67.61Z"/><path class="cls-1" d="M41.61,15.61h5c.13,0,.17,0,.16.17a.75.75,0,0,0,0,.15V67.29c0,.25,0,.33-.31.33H26.3c-.24,0-.3,0-.3-.29,0-1.64,0-3.27,0-4.91a.37.37,0,0,1,.29-.08c1.63,0,3.26,0,4.9,0,.45,0,.9,0,1.35,0H41c.48,0,.48,0,.48-.48V21.15c0-.11,0-.23,0-.34,0-1.63,0-3.27,0-4.91A.39.39,0,0,1,41.61,15.61Z"/><path class="cls-3" d="M31.21,62.4H26a1.93,1.93,0,0,1,0-.24V15.6h15.6v5.2c-.14.12-.31.08-.47.08H31.87c-.61,0-.58-.06-.58.57V61.85A.82.82,0,0,1,31.21,62.4Z"/><path class="cls-4" d="M31.21,62.4q0-20.64,0-41.26c0-.27.07-.34.34-.34H41.6c0,.09,0,.19,0,.28v41c0,.26,0,.33-.32.32H31.21Z"/></g></g></svg>