<svg xmlns="http://www.w3.org/2000/svg" viewBox="0 0 270.76 60.3"><defs><style>.cls-1{fill:#1d1d1b;}.cls-2{fill:#f9d716;stroke:#e6007e;stroke-miterlimit:10;}</style></defs><title>Recurso 6</title><g id="Capa_2" data-name="Capa 2"><g id="fondo"><path class="cls-1" d="M4,60.3V5.1h9.2V23.51h18.4V5.1h9.19V60.3H31.57V32.71H13.17V60.3Z"/><path class="cls-1" d="M50,51.1V14.3h9.2V51.1Zm9.2,9.2V51.1h18.4v9.2Zm18.4-9.2V14.3h9.19V51.1Z"/><path class="cls-1" d="M96,60.3v-46h9.2v9.21h9.2v9.2h-9.2V60.3Zm27.6,0V41.91h-9.2v-9.2h9.2V14.3h9.19v46Z"/><path class="cls-1" d="M142,60.3v-46h9.2V32.71h27.59v9.2H151.17V51.1h27.59v9.2Z"/><path class="cls-1" d="M188,60.3v-46h36.79V41.91H197.17V51.1h27.59v9.2Zm27.6-27.59v-9.2h-18.4v9.2Z"/><path class="cls-1" d="M234,60.3v-46h36.79v9.21H243.17V60.3Z"/><path class="cls-2" d="M.5,55.7V.5H9.7V18.91H28.09V.5h9.2V55.7h-9.2V28.1H9.7V55.7Z"/><path class="cls-2" d="M46.5,46.5V9.7h9.2V46.5Zm9.2,9.2V46.5H74.09v9.2Zm18.39-9.2V9.7h9.2V46.5Z"/><path class="cls-2" d="M92.5,55.7V9.7h9.2v9.21h9.2V28.1h-9.2V55.7Zm27.59,0V37.3H110.9V28.1h9.19V9.7h9.2v46Z"/><path class="cls-2" d="M138.5,55.7V9.7h9.2V28.1h27.59v9.2H147.7v9.2h27.59v9.2Z"/><path class="cls-2" d="M184.5,55.7V9.7h36.79V37.3H193.7v9.2h27.59v9.2Zm27.59-27.6V18.91H193.7V28.1Z"/><path class="cls-2" d="M230.5,55.7V9.7h36.79v9.21H239.7V55.7Z"/></g></g></svg>