<svg xmlns="http://www.w3.org/2000/svg" viewBox="0 0 3300.27 1300.11"><defs><style>.cls-1{fill:#010303;}.cls-2{fill:#feba00;}.cls-3{fill:#faf20f;}</style></defs><title>Recurso 1</title><g id="Capa_2" data-name="Capa 2"><g id="Capa_1-2" data-name="Capa 1"><path class="cls-1" d="M3099.67,1200.68c.14,31.31.2,62.62.47,93.93,0,4.61-2,5.78-6,5.44-2.32-.19-4.66,0-7,0Q1650,1300,213,1300c-15,0-12.8,1.7-12.85-12.53-.12-29,0-58,0-87l-.26.16c3.66-.15,7.31-.42,11-.42q1439,0,2878.08,0c3.64,0,7.29.36,10.93.54Z"/><path d="M200.56,98.8l-.48-83.92c0-3.34.12-6.67,0-10s1.09-5,4.54-4.87c2.66.08,5.33,0,8,0H3088.67c11.39,0,11.39,0,11.39,11.76q0,38.49,0,77c0,3.31-.3,6.63-.46,9.94l-2885,0C209.89,98.7,205.23,98.76,200.56,98.8Z"/><path class="cls-1" d="M100,1100.4q-44-.2-88-.39c-13.83-.07-11.94,1.22-11.94-11.47q0-438.42,0-876.85c0-1,0-2,0-3,.08-8.6.09-8.68,8.7-8.69q42.5,0,85,0a53.87,53.87,0,0,1,5.91.63h0c.14,4,.41,8,.41,11.94q0,187.11,0,374.21c0,4,.25,8,.38,11.94-.13,4-.38,8-.38,12q0,238.47,0,477c0,4.33-.17,8.66-.27,13Z"/><path d="M3298.91,200.74c2.16,3,1.1,6.46,1.1,9.68q.09,439.23,0,878.47c0,3.26.84,6.66-.85,9.8h-98.46c-1.22-3.91-.61-7.93-.61-11.9q-.06-238.51,0-477c0-3.64-.25-7.29-.39-10.94.14-4,.39-8,.39-11.94q0-187.17.06-374.34c0-3.95-.74-8,.71-11.86Z"/><path class="cls-1" d="M3298.91,200.74l-98.09-.07c-3.65-.17-7.3-.49-11-.5-27.33,0-54.66,0-82,0-7.65,0-7.78-.14-7.8-7.67-.06-25.67,0-51.33,0-77,0-15.3,0-15.3-15-15.3H216.28c-2.34,0-4.67-.09-7,0-2.93.15-6-.68-9.19,1.51v10.65q0,40,0,80c0,7.67-.13,7.75-7.5,7.8-10.66.07-21.33-.08-32,0-20.32.23-40.64-.66-60.95.48h0q.19-43.8.41-87.61c0-4,0-7.94,0-11.65,3.52-2.21,6.92-1.36,10.17-1.37,26.88-.07,53.77,0,80.66-.09,3.23,0,6.66,1,9.67-1.13,4.67,0,9.33-.1,14-.1l2885,0c3.35,2.19,7.12,1.25,10.7,1.26,27.25.08,54.51,0,81.77.06,7.93,0,8,.09,8,8.17,0,27.92,0,55.84,0,83.77,0,7.92.11,8,8.25,8,26.92,0,53.85,0,80.77.06C3292.37,200,3295.75,199.21,3298.91,200.74Z"/><path class="cls-1" d="M200.05,1200.49c-26.21-.16-52.43-.21-78.64-.54-6.86-.09-15.55,3-20.08-1.64-4.08-4.17-1.17-12.66-1.21-19.23-.17-26.22-.11-52.45-.13-78.68l-.2.25c31.56-.14,63.12-.23,94.68-.5,4.41,0,5.69,1.56,5.66,5.8-.21,31.57-.25,63.13-.34,94.7Z"/><path class="cls-1" d="M3199.67,1100.68c.13,31.23.17,62.47.5,93.71.06,5.44-2.67,5.7-6.81,5.68q-41.39-.15-82.78,0c-3.64,0-7.32-.45-10.91.64l.1.09c.1-2,.27-4,.27-6q0-43,0-85.93c0-8.55.1-8.61,8.83-8.65,14,0,28-.14,42,0,16.29.19,32.61-.72,48.89.53Z"/><path class="cls-1" d="M3200.71,1098.7h98.46c-2.82,2.62-6.26,1.24-9.38,1.26-26.43.12-52.86,0-79.28.1-3.62,0-7.23.41-10.84.63l.09.09Z"/><path class="cls-2" d="M3200.71,1098.7l-.95,2.07c-16.28-1.25-32.6-.34-48.89-.53-14-.16-28-.07-42,0-8.73,0-8.82.1-8.83,8.65q-.06,43,0,85.93c0,2-.17,4-.27,6-3.64-.18-7.29-.54-10.93-.54q-1439,0-2878.08,0c-3.66,0-7.31.27-11,.42.09-31.57.13-63.13.34-94.7,0-4.24-1.25-5.84-5.66-5.8-31.56.27-63.12.36-94.68.5.1-4.33.27-8.66.27-13q0-238.47,0-476.95c0-4,.25-8,.38-12l499.19.07c.13,2,.38,4,.38,6q0,123.39,0,246.78,0,69.93,0,139.87c0,8.7.1,8.78,8.71,8.8q40,.06,79.93,0c12.32,0,11.35,1.47,11.35-11.12q0-137.86,0-275.75c0-2.66.17-5.34,0-8-.29-4,1.73-5.31,5.4-5.14,2.32.11,4.66,0,7,0H885.28c3,0,6-.18,9,0,4.29.32,5.88-1.43,5.85-5.74-.25-31.29-.35-62.58-.5-93.88,3.63-.14,7.25-.39,10.87-.4,26.43,0,52.85,0,79.27-.08,3.51,0,7.29,1.2,10.52-1.35h99.38c.13,3.32.38,6.64.38,10q0,189.5,0,379c0,2.67.07,5.34,0,8,0,2.82,1.13,4.41,4.07,4.43,2.66,0,5.33,0,8,0h378c9.91,0,10,1.22,10-9.56,0-26.66,0-53.33,0-80,0-11.75,1.22-10.45-10.88-10.45q-138,0-276,0c-2.33,0-4.68-.19-7,0-5,.47-6.57-1.94-6.14-6.52.19-2,0-4,0-6q0-139.5,0-279c0-3.32.25-6.64.39-10l499.18,0,.21,102.07a14.55,14.55,0,0,0-2.92-.59q-45-.07-90,0c-6.79,0-6.88.23-6.89,8.57q0,141.49,0,283c0,8.28.11,8.4,8.1,8.42q42,.09,84,0c7.71,0,7.72-.13,7.9-7.57,0-1.33,0-2.67,0-4q0-139,0-278c0-3.32-.23-6.65-.36-10,3-.16,6-.45,8.93-.45q141,0,282.08,0c3,0,5.92.4,8.89.61.16,3.65.45,7.3.45,11q0,75.48,0,151,0,64.49,0,129c0,8.31.1,8.43,8.06,8.45q42,.09,84,0c7.75,0,7.75-.13,7.94-7.53,0-1,0-2,0-3q0-139.47,0-278.94c0-11.79,1.26-10.48-10.82-10.51q-40-.09-80,0c-3.29,0-6.68-.59-9.86.87,1.21-3.9.64-7.91.66-11.86q.29-45.24.44-90.48l299.18,0q.2,44.41.42,88.84c.09,14.21-1.87,12.48,12.91,12.57q43.43.27,86.84.44c.08,5.32.22,10.65.22,16q0,136.83,0,273.66c0,9.88,0,9.92,9.58,9.93q39.95,0,79.9,0c11.35,0,10.51,1.13,10.52-11q0-139.82,0-279.65c0-3-.27-6-.41-9,3.64-.14,7.29-.4,10.94-.41q39.89,0,79.78,0c9.65,0,9.67,0,9.7-9.74,0-7.64,0-15.29,0-22.93q.16-34.39.4-68.78l599.18,0c.14,3.65.39,7.3.39,10.94q0,238.53,0,477.05C3200.1,1090.77,3199.49,1094.79,3200.71,1098.7Z"/><path class="cls-3" d="M1099.66,598.81h-99.38c-.07-2-.2-4-.2-6q0-92,0-184c0-9.29.64-8.72-8.58-8.73q-39.5,0-79,0c-4.29,0-8.66-.72-12.89.73q.23-48,.49-95.92c0-3.24-.87-5.11-4.49-4.85-2,.15-4,0-6,0H610.71c-12.28,0-10.63-.38-10.63,10.83q0,138.45,0,276.9c0,3.65-.26,7.31-.39,11l-499.19-.07c-.13-4-.38-8-.38-11.94q0-187.11,0-374.21c0-4-.27-8-.41-11.94,20.31-1.14,40.63-.25,61-.48,10.66-.12,21.33,0,32,0,7.37,0,7.48-.13,7.5-7.8q.07-40,0-80V101.68c3.17-2.19,6.26-1.36,9.19-1.51,2.33-.11,4.66,0,7,0H3085.06c15,0,15,0,15,15.3,0,25.67,0,51.33,0,77,0,7.53.15,7.66,7.8,7.67,27.33.06,54.66,0,82,0,3.65,0,7.3.33,11,.5-1.45,3.88-.71,7.91-.71,11.86q-.08,187.17-.06,374.34c0,4-.25,8-.39,11.94l-599.18,0c-.14-4-.38-7.91-.4-11.86q-.2-43.06-.33-86.14c3.58-1.12,7.27-.59,10.9-.6,27-.05,53.91,0,80.87,0,8.39,0,8.52-.09,8.53-7.88q0-92.34,0-184.69c0-7.3-.15-7.4-7.83-7.42q-40.42-.08-80.86,0c-13,0-11.26-.85-11.28,11.15q-.12,94.85-.15,189.68c-3.17-1.48-6.54-.8-9.82-.8q-38.85-.09-77.7,0c-14.34,0-12.24-1.29-12.33,12-.2,28.87-.29,57.75-.42,86.63l-99.18-.07c-.14-3.63-.38-7.26-.4-10.89q-.18-43.7-.3-87.39c-2-2.55-4.8-1.86-7.37-1.86q-45.88,0-91.78.11c-.18-3.63-.53-7.26-.54-10.89q-.06-57.31,0-114.62c0-24.24-.18-48.49-.27-72.73-1.34-1.89-3.36-1.88-5.36-1.88q-44.25,0-88.52,0c-2.27,0-4.76-.34-5.92,2.44q0,79.35.07,158.7c0,10,0,20,0,29.94,0,10.73-1.34,10.49,10,10.48,15.31,0,30.61-.07,45.92,0,14.62.08,29.24.31,43.86.48q-.09,49.08-.19,98.17l-299.18,0c-.14-3.66-.39-7.31-.39-11,0-26.66,0-53.32,0-80,0-7.55-.12-7.66-7.59-7.68q-43.49-.06-87,0a49.42,49.42,0,0,0-5.9.7,10.28,10.28,0,0,0,.38-2q.06-96.43.21-192.89c0-5.18-2.07-6-6.51-6-28.65.15-57.3,0-86,.1-7.49,0-7.61.17-7.63,7.81,0,25.65,0,51.3,0,77q-.09,58-.25,115.93c-3.21-1.26-6.57-.68-9.85-.69q-38.82-.07-77.64,0c-14.28,0-12.14-1.3-12.24,12.11-.2,28.85-.29,57.71-.42,86.56l-499.18,0c-.14-3.66-.39-7.31-.39-11q0-138.91,0-277.84c0-10.76,1.15-9.81-9.44-9.83q-40,0-80,0c-12.26,0-10.57-.35-10.57,10.89q0,138.42,0,276.84C1100,591.5,1099.79,595.16,1099.66,598.81Z"/><path class="cls-2" d="M2499.66,598.81c.75,34,.47,68,.14,102-15.52-1.38-31.07-.54-46.61-.53-17.85,0-35.72-.82-53.57.54q.23-35.69.46-71.38c.08-10.24.26-20.48.4-30.71Z"/><path class="cls-2" d="M2299.79,300.47q-46.93-.09-93.89-.14a49.58,49.58,0,0,0-5.91.7c1.16-2.78,3.65-2.44,5.92-2.44q44.27,0,88.52,0C2296.43,298.59,2298.45,298.58,2299.79,300.47Z"/><path class="cls-2" d="M2299.62,500.82c.34-.7.68-1.41,1-2.11q45.9-.06,91.78-.11c2.57,0,5.41-.69,7.37,1.86C2366.4,500.42,2333,499.73,2299.62,500.82Z"/><path class="cls-3" d="M899.84,400.62q.1,86.65.21,173.31c0,9-.16,17.92-.25,26.88-3.57-1.27-7.27-.65-10.9-.66q-88.93-.06-177.88,0c-12.18,0-10.94.72-10.94-10.57q0-89.44,0-178.88c0-.67,0-1.34,0-2,.11-8.43.11-8.51,8.94-8.51q73.46,0,146.9,0C870.56,400.18,885.2,400.46,899.84,400.62Z"/><path class="cls-3" d="M1799.63,500.65c17.86-.17,35.72-.46,53.58-.47,15.54,0,31.09.28,46.63.44.07,30.9.19,61.79.19,92.69,0,6.64-.22,6.77-7.58,6.79q-42.36.09-84.73,0c-7.49,0-7.61-.16-7.63-7.79-.06-26.91,0-53.83,0-80.74C1800,507.93,1799.78,504.29,1799.63,500.65Z"/><rect class="cls-3" x="371.56" y="179.64" width="2478.34" height="419.1"/><rect class="cls-2" x="371.56" y="598.74" width="2478.34" height="419.1"/></g></g></svg>